<?xml version="1.0" encoding="utf-8"?>
<!-- Generator: Adobe Illustrator 16.0.0, SVG Export Plug-In . SVG Version: 6.00 Build 0)  -->
<!DOCTYPE svg PUBLIC "-//W3C//DTD SVG 1.1//EN" "http://www.w3.org/Graphics/SVG/1.1/DTD/svg11.dtd">
<svg version="1.1" id="Layer_1" xmlns="http://www.w3.org/2000/svg" xmlns:xlink="http://www.w3.org/1999/xlink" x="0px" y="0px"
	 width="128px" height="128px" viewBox="0 0 128 128" enable-background="new 0 0 128 128" xml:space="preserve">
<g>
	<g>
		<rect id="Rectangle" x="0.112" y="0.281" fill="#FF0000" width="128" height="128"/>
	</g>
</g>
<text transform="matrix(1 0 0 1 297.6406 420.9453)" font-family="'MyriadPro-Regular'" font-size="12">RB Site Social Links</text>
<g>
	<g>
		<g>
			<path fill="#FFFFFF" d="M112.163,109.811c0,4.219-3.42,7.639-7.639,7.639H23.699c-4.22,0-7.64-3.42-7.64-7.639l0,0
				c0-4.219,3.42-7.639,7.64-7.639h80.825C108.743,102.172,112.163,105.592,112.163,109.811L112.163,109.811z"/>
			<text transform="matrix(1 0 0 1 21.5918 112.2305)" fill="#FF0000" font-family="'JosefinSans-Bold'" font-size="9">RB Site Social Links</text>
		</g>
	</g>
	<path fill-rule="evenodd" clip-rule="evenodd" fill="#FFFFFF" d="M86.82,96.049c-0.849-0.154-1.709-0.252-2.544-0.471
		c-3.138-0.809-5.582-2.674-7.646-5.105c-2.037-2.4-2.984-5.199-3.146-8.301c-0.043-0.838-0.083-1.676-0.094-2.512
		c-0.003-0.289-0.119-0.434-0.355-0.57c-7.375-4.25-14.746-8.506-22.118-12.76c-0.462-0.268-0.937-0.514-1.383-0.805
		c-0.259-0.17-0.447-0.154-0.695,0.016c-1.867,1.283-3.898,2.188-6.134,2.584c-7.468,1.324-14.621-3.096-16.693-10.373
		c-2.35-8.25,2.471-17.072,11.708-18.742c3.617-0.653,6.955,0.151,10.039,1.997c1.059,0.632,1.806,0.627,2.86,0.012
		c7.437-4.344,14.913-8.619,22.381-12.909c0.225-0.129,0.328-0.273,0.344-0.535c0.083-1.34,0.126-2.686,0.289-4.017
		c0.419-3.393,2.001-6.203,4.479-8.514c2.051-1.911,4.457-3.167,7.22-3.705c0.521-0.101,1.051-0.152,1.576-0.226
		c0.781,0,1.56,0,2.341,0c0.494,0.082,0.991,0.157,1.485,0.247c8.429,1.536,13.738,9.834,11.593,18.116
		c-2.035,7.851-10.322,12.64-18.104,10.475c-1.675-0.464-3.201-1.227-4.639-2.183c-0.296-0.198-0.554-0.262-0.905-0.06
		c-7.865,4.528-15.736,9.044-23.609,13.556c-0.215,0.123-0.295,0.264-0.29,0.513c0.021,1.184,0.039,2.368,0.023,3.553
		c-0.004,0.336,0.111,0.509,0.396,0.672c7.813,4.503,15.621,9.01,23.423,13.536c0.357,0.209,0.585,0.184,0.9-0.057
		c3.193-2.412,6.899-3.156,10.713-2.572c10.333,1.584,15.496,12.498,10.856,21.285c-2.062,3.906-5.233,6.379-9.508,7.436
		c-0.793,0.195-1.613,0.279-2.42,0.418C88.381,96.049,87.6,96.049,86.82,96.049z"/>
</g>
</svg>
